<svg preserveAspectRatio="none" overflow="visible" style="display: block;" width="40.61" height="39.2665" viewBox="0 0 40.61 39.2665" fill="none" xmlns="http://www.w3.org/2000/svg">
<path id="Vector" d="M3.40625 0.5H37.1914C38.0083 0.5 38.6881 0.780825 39.2588 1.35156C39.8294 1.92226 40.1104 2.60213 40.1104 3.41895V29.1855C40.1104 29.989 39.8303 30.6644 39.2578 31.2383C38.687 31.8109 38.0078 32.0928 37.1914 32.0928H25.3633L25.2158 32.3154L21.3008 38.1934L21.2979 38.1982C21.1713 38.3921 21.022 38.5292 20.8516 38.623C20.6763 38.7195 20.4943 38.7666 20.2988 38.7666C20.0995 38.7666 19.9166 38.719 19.7422 38.623C19.5725 38.5297 19.4259 38.3934 19.3027 38.2012L19.2979 38.1943L15.3838 32.3154L15.2354 32.0928H3.40625C2.59398 32.0927 1.91815 31.8114 1.34961 31.2393H1.34863C0.778405 30.6655 0.5 29.9895 0.5 29.1855V3.41895L0.512695 3.11816C0.574104 2.43273 0.851142 1.84983 1.34863 1.35059C1.91708 0.780206 2.59343 0.500057 3.40625 0.5ZM2.89453 29.6855H16.5137L19.8818 34.7686L20.2988 35.3975L20.7158 34.7686L24.084 29.6855H37.7031V2.90625H2.89453V29.6855Z" fill="#020807" stroke="#020807"/>
</svg>
