<svg preserveAspectRatio="none" overflow="visible" style="display: block;" width="40.61" height="32.61" viewBox="0 0 40.61 32.61" fill="none" xmlns="http://www.w3.org/2000/svg">
<path id="Vector" d="M3.40625 0.5H37.1914C37.9764 0.5 38.6514 0.782092 39.2393 1.37012V1.37109C39.8274 1.95896 40.1104 2.63385 40.1104 3.41895V29.2031C40.1104 29.8867 39.8942 30.4869 39.4463 31.0186L39.2402 31.2422C38.6525 31.8282 37.9771 32.1104 37.1914 32.1104H3.40625C2.62462 32.1103 1.95268 31.8289 1.36719 31.2432C0.781324 30.6576 0.5 29.9849 0.5 29.2031V3.41895L0.513672 3.12891C0.575592 2.46547 0.854611 1.8843 1.36719 1.37012H1.36816C1.9538 0.782203 2.62518 0.50006 3.40625 0.5ZM2.90625 3.52441V29.7031H37.6914V5.51562L36.917 6.02637L20.9688 16.5254C20.8322 16.5973 20.7081 16.655 20.5957 16.6992C20.5287 16.7255 20.4332 16.7461 20.2988 16.7461C20.1645 16.7461 20.0689 16.7256 20.002 16.6992C19.8885 16.6546 19.7631 16.5963 19.625 16.5234L3.90625 6.17383V4.17969L20.0254 14.7363L20.2988 14.916L20.5723 14.7373L37.2646 3.83691L38.6719 2.91895H1.98047L2.90625 3.52441Z" fill="#020807" stroke="#020807"/>
</svg>
